<svg width="29" height="32" viewBox="0 0 29 32" fill="none" xmlns="http://www.w3.org/2000/svg">
<g id="symbol">
<path d="M15.3086 0.217843C14.8083 -0.0726145 14.1917 -0.0726142 13.6914 0.217843L1.30823 7.40632C0.808085 7.69666 0.5 8.23311 0.5 8.81364V23.1863C0.5 23.767 0.808191 24.3035 1.30847 24.5938L5.54333 27.0512C5.97449 27.3014 6.51342 26.9886 6.51342 26.4882V12.3029C6.51342 11.7225 6.82143 11.1861 7.32147 10.8957L13.6914 7.19678C14.1918 6.90626 14.8083 6.90618 15.3087 7.19657L21.6831 10.8958C22.1834 11.1861 22.4915 11.7226 22.4915 12.3032V19.697C22.4915 20.2776 22.1834 20.8141 21.6831 21.1044L15.3088 24.8035C14.8084 25.0939 14.1917 25.0938 13.6914 24.8032L11.1235 23.3115C10.6923 23.061 10.1531 23.3737 10.1531 23.8743V28.7888C10.1531 29.3692 10.461 29.9055 10.9609 30.1959L13.6912 31.7819C14.1917 32.0726 14.8084 32.0727 15.3089 31.7822L27.6918 24.5938C28.1919 24.3035 28.5 23.7671 28.5 23.1865V8.81364C28.5 8.23311 28.1919 7.69666 27.6918 7.40632L15.3086 0.217843Z" fill="#1D3068"/>
<path d="M18.205 18.898C18.6053 18.6658 18.8518 18.2365 18.8518 17.772V14.2232C18.8518 13.7587 18.6053 13.3294 18.205 13.0972L15.147 11.3228C14.7467 11.0905 14.2534 11.0906 13.8531 11.3231L10.7994 13.0971C10.3994 13.3294 10.1531 13.7585 10.1531 14.2227V17.7724C10.1531 18.2367 10.3994 18.6658 10.7994 18.8981L13.8531 20.6721C14.2534 20.9046 14.7467 20.9047 15.147 20.6724L18.205 18.898Z" fill="#1D3068"/>
</g>
</svg>
